<svg xmlns="http://www.w3.org/2000/svg" xmlns:xlink="http://www.w3.org/1999/xlink" viewBox="0 0 156.09 49.34"><defs><style>.cls-1{fill:#f40305;}.cls-2{fill:#fafafa;}</style><symbol id="New_Symbol" data-name="New Symbol" viewBox="0 0 156.09 49.34"><path class="cls-1" d="M69.44,10.16c0,1.32.06,1.29,1.34,1.35a4.19,4.19,0,0,1,2.08.38c.55.33.68-.12.73-.57a4.09,4.09,0,0,1,.31-2c.44.27.39.67.37,1-.2,3.83.43,7.62.42,11.43a19.73,19.73,0,0,0,2.41,8.46c.25.53.56,1,.86,1.55a.44.44,0,0,1,.06.48c-.64.8.11,1,.56,1.23,1.78,1,3.11-.24,3.68-1.53A30.86,30.86,0,0,0,84,25.47c.44-2.29,1.07-4.54,1.57-6.82.31-1.42.51-2.86.79-4.28a11.25,11.25,0,0,0,.3-2.77c.63.09.9-.2.88-.83a.81.81,0,0,1,.16-.63.71.71,0,0,1,1,.12,11.1,11.1,0,0,0,1.37,1.28,1.45,1.45,0,0,1,.48,1.77,15.42,15.42,0,0,0-.79,5.43A1.33,1.33,0,0,1,89.4,20a2.31,2.31,0,0,0-.57,1.59c0,.25,0,.6-.09.75-.91,1-.88,2.44-1.47,3.59A17,17,0,0,0,86.05,30a13.25,13.25,0,0,1-1.69,4.7,32.18,32.18,0,0,0-1.78,4,13.29,13.29,0,0,1-1,1.66c-.28.4-.75.44-.94.16-.44-.65-.93-.26-1.27-.09A2.32,2.32,0,0,1,76.64,40a7,7,0,0,1-2.06-2.57c-.44-1.08-1.41-1.56-2.25-2.21a1.67,1.67,0,0,1-.79-1.5c0-.83-.75-1.29-.83-2.25-.53,1.2-.25,2.38,1.53,7a16.24,16.24,0,0,0,3.92,5.88c-.83-.12-.9-.2-1.89-1.54a17.23,17.23,0,0,1-2.21-3.27c-.55-1.25-1-2.54-1.51-3.82-.22-.57-.34-1.17-.55-1.91A4.5,4.5,0,0,0,69.45,35a25.77,25.77,0,0,0-.92,6.93,4.26,4.26,0,0,1,0,.51c-.08.36-.26.71-.66.67s-.53-.39-.51-.76c.06-.86.14-1.72.2-2.57a5.92,5.92,0,0,0,0-.63c-.48.41-.29,1-.6,1.34s-.27.58-.61.49a.67.67,0,0,1-.44-.68c0-.34,0-.68-.07-1.11-.44.28-.32.66-.32.95a8.51,8.51,0,0,1-1.32,4.7,1.34,1.34,0,0,1-.78.7c-.17,0-.36,0-.32.29s.21.18.38.15.59-.09.66.32a.46.46,0,0,1-.28.56.75.75,0,0,1-.82-.16c-1.26-.92-.25-2-.13-2.84.31-2.21,1-4.36,1.19-6.58A11.54,11.54,0,0,1,64.46,36c.29-1.55.52-3.11.91-4.63.51-2,.73-4,1.25-6a6,6,0,0,0,.09-.85c0-.28.15-.55.43-.58.9-.08.84-.74.94-1.37.33-2.08.32-4.23,1.3-6.18.43-.87.62-.91,1.37-.27.25-1.08.25-1.08-.82-1.11,0,0-.07,0-.09,0-1.07-.65-1.13.27-1.33.89a14.7,14.7,0,0,0-.81,3.73c-.06,1.13-.28,2.25-.44,3.41-.62-.24-.47-.74-.4-1.11.32-1.52.16-3.09.45-4.62.14-.75.21-1.53.39-2.28.15-.57,0-1-.68-1-.87,0-1-.7-1.32-1.26s0-.77.56-.82a7.3,7.3,0,0,0,1.53-.2.81.81,0,0,0,.69-1ZM79.15,36.7a3.29,3.29,0,0,0,2.65-1.6c.06-.16.15-.34,0-.49s-.32,0-.45,0a2.26,2.26,0,0,1-2,.25A9.84,9.84,0,0,1,77.52,34c-.25-.12-.5-.25-.71,0s-.12.54,0,.79a9.7,9.7,0,0,0,.82,1.09A2.3,2.3,0,0,0,79.15,36.7Zm5.23-9.8a17.73,17.73,0,0,1-1.77,5.44c-.06.11-.28.31-.07.42s.35-.16.47-.34A19,19,0,0,0,85,27.91C85.11,27.47,84.91,27.14,84.38,26.9Zm1-5.09c1.24-1.76.93-3.91,1.51-5.84A26.27,26.27,0,0,0,85.38,21.81ZM67.88,33.26a3.89,3.89,0,0,0,.45-2.59C68.15,31.46,67.55,32.17,67.88,33.26Zm19.23-20.5a4.7,4.7,0,0,1-.3,2c-.08.14-.1.36.13.42s.29-.14.32-.3A2.73,2.73,0,0,0,87.11,12.76Zm-7.71,25-.92-.28c-.5-.15-.79,0-.53.31s.91.2,1.38.12C79.35,37.89,79.35,37.85,79.4,37.74Z"/><path class="cls-1" d="M133.16,27.11c1.34.33,2.19,1.64,3.67,1.68-.48-.32-1-.64-1.43-1a1.88,1.88,0,0,1-.55-2.63c.23-.36.52-.13.79,0s.74,0,.54-.34c-.47-.94-.1-1.93-.35-3a9,9,0,0,0-1.34,2.26c-.1.2-.11.61-.46.5s0-.43,0-.6a20.12,20.12,0,0,1,3-5.47,1.65,1.65,0,0,1,1-.7,4.92,4.92,0,0,0,2.21-1.22A57.84,57.84,0,0,1,149.26,11a1.34,1.34,0,0,1,.67-.06,3.8,3.8,0,0,0,2.68-1c.71-.56,1.17-1.64,2.38-1.47.43.05.32-.39.39-.64s-.07-.76.41-.69.28.53.23.8c-.22,1.17-.48,2.34-.75,3.51-.42,1.86-.85,3.73-1.35,5.56-.39,1.44,0,2.93-.56,4.32-.07.2,0,.52-.33.52s-.36-.28-.43-.55a8.68,8.68,0,0,1,.05-2.22c0-.37.11-.78-.52-.38s-.82.21-.88-.53c-.13-1.45.44-2.84.34-4.28,0-.22.07-.45-.08-.69-1.5,1.31-3.77.91-5.24,2.44a.68.68,0,0,0,.81-.06.64.64,0,0,1,1,.2c.25.42-.29.38-.47.51-1.08.77-2.25,1.4-3.32,2.18A14.77,14.77,0,0,0,141,22a1.86,1.86,0,0,0-.19,1.71c.83-2.2,2.63-3.54,4.32-5a16.73,16.73,0,0,1,5.6-3.32,8.59,8.59,0,0,1-2.4,1.66,20.31,20.31,0,0,0-6.17,5.65,1.34,1.34,0,0,0,.31,2,23.92,23.92,0,0,0,2.58,1.64,34.42,34.42,0,0,1,5.16,4c.84.67,1.06,1.86,1.45,2.86.16.39-.41.64-.18,1,.22.07.34-.15.51-.22s.47-.45.78-.07a.74.74,0,0,1,0,1,14.9,14.9,0,0,1-3,2.73,47.92,47.92,0,0,1-9.16,5c-2.1.87-4.23,1.64-6.35,2.46-.28.11-.58.23-.72-.14a.54.54,0,0,1,.35-.75c.47-.2,1.14-.23,1-1,0-.2.31-.2.51-.24s.56-.11.83-.19c.63-.17.93-.42.28-1a2.15,2.15,0,0,1-.45-.62c-.29-.54-.08-1,.48-1a19.85,19.85,0,0,0,3.72-1.17,28.28,28.28,0,0,0,2.8-1,9.93,9.93,0,0,0,3.36-2.56c.62-.65.51-1.22-.35-1.57-2.42-1-4.74-2.32-7.37-2.8a1.34,1.34,0,0,1-1.18-.91c-.26-.65-1.19-.69-1.79-1A7.29,7.29,0,0,1,133.16,27.11Zm16.41,5c0-.86-.35-1-1.37-.61C148.69,31.61,149.34,31.35,149.57,32.06Z"/><path class="cls-1" d="M114.7,42.53c-.28-.32-.44-.56-.65-.75a1.17,1.17,0,0,1-.4-1.23c.14-.55.63-.23.94-.34,1.26-.46,2.52-.93,3.78-1.37a11.32,11.32,0,0,0,4.41-2.27c.58-.58,1.55-1,1.34-2s-1.25-.9-1.93-1.22A31.64,31.64,0,0,0,116,31.26c-.45-.1-1-.23-1-.87,0-.19-.2-.29-.41-.37a12.4,12.4,0,0,1-4-2.42c-.14-.14-.55-.15-.36-.45s.48,0,.66.11a30.91,30.91,0,0,0,2.93,1.87,4.57,4.57,0,0,0,1.34.52,1,1,0,0,0-.59-.61,8.62,8.62,0,0,1-2.28-1.44,3.49,3.49,0,0,1-.12-2.34c.26-.23.56-.07.83,0s.61-.07.45-.43a5.87,5.87,0,0,1-.2-1.86c0-.19.06-.44-.2-.51s-.31.2-.39.36c-.35.68-.67,1.37-1,2.06a.29.29,0,0,1-.36.15,6.66,6.66,0,0,1,1-2.86,11.38,11.38,0,0,1,2.57-3.63c.65-.56,1.52-.54,2.18-1.1a49.37,49.37,0,0,1,5.42-3.76,32.85,32.85,0,0,1,4.11-2.36,2.37,2.37,0,0,1,1.07-.2A3.16,3.16,0,0,0,130,10c.6-.57,1.1-1.59,2.21-1.49.31,0,.38-.15.45-.39s.27-.69.41-1.06c.32.13.49.32.42.66-.32,1.62-.66,3.23-1.09,4.83-.3,1.13-.34,2.31-.64,3.45a18.19,18.19,0,0,0-.72,4.82c0,.31-.14.73-.47.71s-.46-.41-.5-.78c-.07-.67.31-1.28.28-1.94,0-.17,0-.36-.21-.42a.29.29,0,0,0-.4.22.41.41,0,0,1-.51.33c-.36-.07-.32-.39-.32-.62a22.6,22.6,0,0,1,.28-4.11c.06-.25.22-.54,0-.73s-.43.14-.64.23a11.6,11.6,0,0,1-2.18.72c-.81.13-1.43.67-2.2.86a.31.31,0,0,0-.24.4c.08.19.29.12.46.1s.57-.41.95-.13c.12.09.36,0,.38.25s-.17.24-.31.33c-1.2.76-2.42,1.48-3.56,2.31a11.11,11.11,0,0,0-3.67,4.47c-.17.37-.15.37-.06,1,2.44-4,6.06-6.54,10.1-8.56-.17.67-.77.82-1.25,1.08a21.82,21.82,0,0,0-7.17,6.2c-.81,1.11-.68,1.83.54,2.44a35.78,35.78,0,0,1,6.82,4.5,4.25,4.25,0,0,1,1.84,4c0,.14,0,.32.1.38a.49.49,0,0,0,.55-.13c.21-.28.43-.28.64-.08a.64.64,0,0,1,.19.77A4.66,4.66,0,0,1,129,36.31a42.16,42.16,0,0,1-10.55,6.27c-2.11,1-4.3,1.72-6.44,2.59-.31.13-.62.32-.79-.09s-.06-.61.4-.77,1-.13.8-.89c0-.14.39-.41.69-.41A10.19,10.19,0,0,0,114.7,42.53Zm12.48-10.67c-.38-.4-.74-.89-1.44-.41C126.31,31.35,126.65,31.88,127.18,31.86Zm-.73,2.26c0-.24-.09-.34-.25-.36s-.28.14-.28.32a.2.2,0,0,0,.26.23C126.34,34.28,126.46,34.23,126.45,34.12Z"/><path class="cls-1" d="M55.09,11.61c0,.54.16.75.75.73,1.7-.07,3.36-.47,5.06-.41.33,0,.86-.25.92.31s-.47.61-.9.68a5.06,5.06,0,0,0-1.44.2c-.22.1-.5.17-.45.53s.34.34.59.33c.58,0,1.16-.08,1.49.56.08.14.24.13.38.16,1,.16,1.44.69,1.35,1.88a2,2,0,0,0-2.58.38.89.89,0,0,1-.57.14c-1.54.11-3.09.26-4.63.33a1,1,0,0,0-1.12,1.12c0,.54-.11,1.08-.17,1.62,0,.2.06.47-.13.57-1,.56-.86,1.56-1,2.46,0,.08-.08.15-.2.37a8,8,0,0,1,0-2.64c.15-.84.65-1.67.33-2.63-.4.14-.49.45-.63.76-.66,1.37-.57,2.87-.82,4.31-.29,1.68-.54,3.36-1,5s-.46,3.35-.8,5c-.41,2-.23,4.05-.67,6.05a12,12,0,0,0,0,2.32c0,.5.12,1.1-.66,1.17A1.23,1.23,0,0,1,47,41.74a30.9,30.9,0,0,1,.43-3.31c.1-.62.35-1.21.47-1.83.06-.31.16-.73-.3-.87s-.64.15-.81.55a18.32,18.32,0,0,0-.54,2.33c-.17.61-.47.79-1,.65-.94-.27-1.1.32-1.15,1a18.29,18.29,0,0,1-.33,2.56c-.2.85-.69,1.14-1.4.71s-.67,0-.71.46c-.13,1.46-.29,2.91-.43,4.36a2.33,2.33,0,0,1-.4,1c-.38-1.73.11-3.34.32-5,0-.17.17-.39.11-.49-.81-1.39.35-2.51.55-3.75a23.23,23.23,0,0,1,.52-2.42A99.52,99.52,0,0,0,44,27.85c.19-1.12.24-2.28.37-3.42.17-1.59.68-3.12.81-4.72.09-1,.06-1.07-1-1a30.15,30.15,0,0,0-4.43.48,16.83,16.83,0,0,0-2.23.41c-.21.08-.55.11-.59-.16s.33-.33.57-.37c1.65-.3,3.32-.6,5-1a3.68,3.68,0,0,0-2.18.11c-.39.11-.79.24-1.12-.06a1,1,0,0,1-.4-1.06c.13-.39.48-.43.84-.47A3.16,3.16,0,0,0,41.77,16c.17-.17.61-.09.92-.08A7.67,7.67,0,0,0,46,15.27a2.5,2.5,0,0,0-2,.06,2.55,2.55,0,0,1-3.6-1.62.52.52,0,0,0-.58-.39c-1,0-2,.09-2.93.16-.56,0-.57.56-.7.93-.28.81-.5,1.63-.75,2.45-.08.24-.23.45-.5.36s-.13-.3-.07-.45a41.74,41.74,0,0,1,1.64-5,1,1,0,0,1,.68.13c-.44,1.06-.42,1,.73,1a35.3,35.3,0,0,1,6.42.22c.57.07,1.14,0,1.71.07s.49-.51.86-.7c.17.28.29.61.77.56,2-.24,4-.45,6-.6.59-.05.72-.32.72-.81ZM45.19,26c-.92,4.47-1.9,8.93-2.48,13.47A79.06,79.06,0,0,0,45.19,26ZM58.6,16.66a15.12,15.12,0,0,0-3.74-.12.38.38,0,0,0-.37.31c0,.16.15.22.3.22A17.43,17.43,0,0,0,58.6,16.66ZM47,31.81c.37-1.06-.34-1.77-.32-2.59C46.17,30.1,46.83,30.85,47,31.81Z"/><path class="cls-1" d="M22.52,8.89a51.94,51.94,0,0,0-1.93,6.71,28,28,0,0,0-.91,4.62,7,7,0,0,0,.07,2.57.6.6,0,0,1-.35.77c-.37.16-.43-.22-.63-.38-.87-.68-.8-1.61-.83-2.53,0-.31,0-.65-.41-.73-.67-.11-.75-.59-.69-1.16l.09-.94c0-.43-.17-.64-.6-.64a6.28,6.28,0,0,0-2.6.5c-.64.3-.72.89-.71,1.53,0,.27.21.72-.22.82s-.38-.41-.62-.8c-.31,1.32-.56,2.5-.86,3.67-.48,1.79-.53,3.67-1.16,5.43a2.8,2.8,0,0,0-.06.77c-.08,1.28.38,1.66,1.61,1.21A9.53,9.53,0,0,1,14.25,30c.38,0,.57.17.61.55s-.2.47-.52.52c-.51.09-1,.23-1.51.33a.37.37,0,0,0-.35.4c0,.31.23.3.42.29a7.3,7.3,0,0,1,2.46.31c.28.06.58,0,.6.46s-.17.55-.52.66a9,9,0,0,1-3.18.63,16.5,16.5,0,0,0-3.06.36c-.24,0-.44.1-.47.4-.23,1.84-.87,3.59-1.07,5.44-.14,1.28-.45,2.53-.68,3.8-.06.31-.23.59-.55.53A.54.54,0,0,1,6,44c.08-.45.08-.91.13-1.37,0-.19.14-.39-.1-.54a.42.42,0,0,0-.55.06.87.87,0,0,1-1.22.13c-.54-.33-.22-.75-.11-1.13A26.86,26.86,0,0,0,4.9,36.4c-.45.5-.56,1-1.18,1.08s-1,.1-1.38-.39c-.28.35-.14.72-.24,1-.05.16-.06.39-.26.39s-.28-.25-.3-.44a3.08,3.08,0,0,1,0-.6c.14-.72-.05-1.12-.88-1a4.35,4.35,0,0,1-.7,0,.55.55,0,0,1,.45-.37c.81-.15,1.43-.36.75-1.36A.53.53,0,0,1,1.44,34a.74.74,0,0,0,.46-1c-.1-.51-.56-.27-.88-.39.06-1,1-1.28,1.6-1.37C4,31,4,30,4.21,29.13c.47-1.95,1-3.91,1.31-5.89s.62-4.19.94-6.28a1,1,0,0,0-.31-1c-.24-.18-.45-.38-.77,0a1.85,1.85,0,0,1-2.49.13c-.37-.36-.18-.82-.16-1.23s.37-.53.68-.53c1.48,0,3-.29,4.45-.2a.66.66,0,0,1,.66.55,1.61,1.61,0,0,0,2.26.8c.2-.13.26-.27.61-.07s.59-.38.55-.66c-.1-.72.21-1,.84-1.17.81-.19.48-1,.76-1.49a1.29,1.29,0,0,0,.07-.49c.23,0,.34-.31.59-.19a.21.21,0,0,1,0,.08C14,13.39,14,13.39,15.94,13.4h.77c.77,0,1.49-.09,1.85-1a3.92,3.92,0,0,1,.83-1.06.72.72,0,0,1,1-.14c.75.65.78-.1.91-.46.31-.79.53-1.61.81-2.41,0-.09.15-.14.24-.21A1.13,1.13,0,0,1,22.52,8.89Zm-7.06,6.47a2.2,2.2,0,0,0,1.63-.08A3,3,0,0,0,15.46,15.36Z"/><path class="cls-1" d="M97,14c.14,0,.38-.12.4-.09.42.84,1,.28,1.56.22,1.07-.12,1.38.18,1.37,1.3a6.36,6.36,0,0,0,.11,1.43,5,5,0,0,0,.58-1.76c0-.4.09-.8.08-1.19s.2-.55.58-.49c.82.13,1.56-.35,2.36-.34.34,0,.39-.27.45-.53s.2-.77.3-1.16h.35c0,1.45,0,1.48,1.47,1.39a3.6,3.6,0,0,0,2.59-.59c.39-.34,1.21-.2,1.48-1a8.63,8.63,0,0,1-.39,3.24A16.19,16.19,0,0,1,109,19.24c-.15.27-.3.61-.56.5s0-.47,0-.72a13.83,13.83,0,0,0,.63-3.37c0-.18.05-.44-.25-.45s-.22.22-.27.37c-.23.79-.47,1.58-.69,2.38a1.53,1.53,0,0,1-.53.84,5,5,0,0,1,0-2.21c.07-.69-.1-1.1-.9-.8a.47.47,0,0,1-.17,0c-1.74-.25-2.08,1-2.5,2.26-.49,1.45-.75,2.95-1.17,4.59-.37-.6,0-1.17-.35-1.8a9.2,9.2,0,0,0-.47,1.72c-.07,1.61-.58,3.16-.58,4.77,0,.48-.3.85-.34,1.32s.06.84.66.82c1.08,0,2.18,0,3.26-.13.45,0,.78-.05.93.44a.59.59,0,0,0,.38.45c.56.16.71.44.48,1s.11.54.5.54.56.09.56.41-.37.29-.59.3a4,4,0,0,1-2.23-.5,3.88,3.88,0,0,0-3.64.35,13,13,0,0,0,2.48,0c.24,0,.62-.14.67.17s-.35.26-.56.33a6.46,6.46,0,0,1-2,.26c-1.16,0-1.32.1-1.58,1.65a21.51,21.51,0,0,0-.47,2.78c0,.61.12.76.68.73,2-.12,3.9-.22,5.85-.32.24,0,.53-.08.73.12a.55.55,0,0,1,.09.57c-.06.23-.21.3-.43.34l-1.69.33c-.49.1-.81.41-.63.91.27.71-.19.67-.61.71-1.58.13-3.18,0-4.69.72a5.32,5.32,0,0,1-2.19.38A32.81,32.81,0,0,0,91,43c-.24.06-.54.17-.68-.13s.18-.44.4-.5c1.85-.48,2.26-2.43,3.59-3.45a20.31,20.31,0,0,1,.37-2.79c.09-1.85.1-1.8-1.75-1.71-.77,0-1.51.49-2.51.18a5.34,5.34,0,0,1,2-.66c.66-.2,1.38,0,2-.27.19-.08.5,0,.53-.34s-.19-.4-.37-.53a1.36,1.36,0,0,1,.12-2.38c.94-.29,1.07-.94,1.18-1.65a75.8,75.8,0,0,0,1.33-11.33c0-1.49-.35-1.73-1.78-1.38-.88.22-1.84.45-2.45-.58-.2-.34-.7-.23-1-.69,1.56-.64,3-1.25,4.73-.54,0,.22.16.43.37.27S97.38,14.13,97,14Zm.33,19.84c-.35.27-.25.58-.3.84a4.06,4.06,0,0,1-.62,1.56c-.39.58-.93,1.2.18,1.64.1,0,.15.24.22.35a.8.8,0,0,0,.87.38.83.83,0,0,0,.72-.63c.27-1.22.5-2.45.71-3.69,0-.2.13-.58-.25-.61s-.44.26-.42.54a21.62,21.62,0,0,1-.35,2.28c0,.22,0,.4-.31.41s-.41-.17-.42-.42,0-.51,0-.77A6,6,0,0,0,97.35,33.88Zm5.36-14.62a1.17,1.17,0,0,0-.18,1.25C102.84,20.1,102.76,19.77,102.71,19.26ZM103,18a.9.9,0,0,0-.16,1A.93.93,0,0,0,103,18Z"/><path class="cls-1" d="M34,20.22c-.9.53-.76,1.48-.91,2.17-.39,1.9-1,3.73-1.57,5.57-.5,1.6-.75,3.28-1.3,4.86-.79,2.28-.65,4.62-.88,7-.06.69-.18,1.41-1.11,1.47-.46,0-.78-.14-.76-.68a9,9,0,0,1,.17-2.14,3.09,3.09,0,0,0,.09-.68c0-.23,0-.49-.27-.58a.46.46,0,0,0-.58.38c-.17,1.52-1.45,1.44-2.46,1.75-.44.14-.53,0-.53-.47a18.92,18.92,0,0,1,.61-3.26,65,65,0,0,0,1.32-7.06,20.36,20.36,0,0,1,.86-3.65,3.82,3.82,0,0,0,.12-1c-.27-.09-.31.05-.36.18s-.1.37-.34.25A.36.36,0,0,1,26,23.8c.36-1.26.57-2.55,1.05-3.77a8.94,8.94,0,0,0,.56-2c.07-.51,0-.78-.6-.72a7.23,7.23,0,0,1-1,0A1.92,1.92,0,0,1,24,15.41c0-.35.11-.5.46-.59a39,39,0,0,1,6.44-1c.91-.06,1.92-.59,2.81.2.14.13.21-.12.32-.18s.4-.38.75-.14a.74.74,0,0,1,.26.91c-.2.85-.48,1.69-.7,2.54-.08.33-.48.86.37.8.17,0,.16.16.13.32a53.72,53.72,0,0,1-1.22,5.63s-.08.06-.21.13C33.32,22.73,34,21.55,34,20.22Zm-4.12,3.07h.22c.07-.24.14-.49.22-.73.63-1.91,1.27-3.82,1.9-5.73.07-.22.12-.46-.13-.62a.45.45,0,0,0-.61.16,4.33,4.33,0,0,0-1.27,2.06C30,20.05,30.29,21.68,29.92,23.29ZM28.36,29.9A16.38,16.38,0,0,0,29.49,25,10.39,10.39,0,0,0,28.36,29.9Zm-.65-9.69c-.93,2.23-.95,2.31-.68,2.93A13,13,0,0,0,27.71,20.21Z"/><path class="cls-2" d="M37.15,11.9a1,1,0,0,0-.68-.13,10.19,10.19,0,0,1-2.12-.91,5.06,5.06,0,0,1-1.84-2,2.64,2.64,0,0,1-.38-2c.29-.71,1.15-.18,1.75-.3s1.14,0,1.37.94c.36,1.45,2.48,2.34,4.25,2A4.86,4.86,0,0,0,43,7a.62.62,0,0,1,.66-.41c.8,0,1.6,0,2.49,0a5.3,5.3,0,0,1-1.62,2.77A9.13,9.13,0,0,1,37.15,11.9Z"/><path class="cls-2" d="M103.85,6.22a7.22,7.22,0,0,1-4,4.4,12.32,12.32,0,0,1-4,1,6.12,6.12,0,0,1-4.35-1.11,4.51,4.51,0,0,1-2-3.44c0-.46,0-.73.58-.67a5.07,5.07,0,0,0,1,0c.81-.08,1.32,0,1.61,1,.42,1.5,2.54,2.31,4.45,1.85a5.23,5.23,0,0,0,3.35-2.47,1,1,0,0,1,1-.58C102.28,6.25,103,6.22,103.85,6.22Z"/><path class="cls-2" d="M69.44,10.16l-1,.62a9.47,9.47,0,0,1-7.1.58,3.42,3.42,0,0,1-2.21-4.62.44.44,0,0,1,.49-.35c.26,0,.52,0,.78,0,.54,0,1.21-.19,1.6,0s0,1,0,1.49a1.57,1.57,0,0,0,1.21,1.57,5,5,0,0,0,3-.11,2.09,2.09,0,0,0,1.42-1.87c.09-1,.52-1.33,1.47-1.14a3.08,3.08,0,0,0,.68,0c1.2,0,1.19,0,.91,1.2A6.7,6.7,0,0,1,69.44,10.16Z"/><path class="cls-2" d="M90.24,4.16a8.83,8.83,0,0,1,7.5-4A6.32,6.32,0,0,1,103,2.34c.38.45,1,1,.75,1.52-.13.32-1,.3-1.56.31a2.94,2.94,0,0,1-2.29-.76,4.45,4.45,0,0,0-5.44.07A3.52,3.52,0,0,1,92,4.16C91.46,4.14,90.94,4.16,90.24,4.16Z"/><path class="cls-2" d="M32.88,4.33C35,.61,40.48-.81,44,1.37a4.87,4.87,0,0,1,2,2.28c.2.46.25.76-.41.68a7.22,7.22,0,0,0-1,0,2.75,2.75,0,0,1-2.36-.77c-1.25-1.2-3.67-1.16-5.37,0a3.86,3.86,0,0,1-2.7.72C33.76,4.31,33.36,4.33,32.88,4.33Z"/><path class="cls-2" d="M55.09,11.61H54.4c-2.42-.13-4.84.29-7.27.17-.56,0-.81,0-.65-.72.29-1.31.5-2.64.69-4,.06-.41.19-.52.58-.51q1,0,2,0c.38,0,.51.1.42.49C50,7.67,50,8.3,49.82,8.91s-.07.8.61.78A41.72,41.72,0,0,0,55,9.48h.6a1.31,1.31,0,0,0,.34,0c.7-.13.86.17.67.79a.8.8,0,0,0-.08.33c.06.85-.37,1.1-1.14,1A1.31,1.31,0,0,0,55.09,11.61Z"/><path class="cls-2" d="M85,.36c0,.09,0,.12,0,.14-.29,1.93-.29,1.93-2.22,1.93h-.94c-1.37,0-1.37,0-1.74,1.3,0,0,0,.06,0,.08-.75.79-1.69.19-2.53.32-.59.1-.27-.44-.25-.66,0-.8-.16-1.17-1.07-1.07a26.16,26.16,0,0,1-2.66,0c-.41,0-.46-.13-.41-.5C73.35.36,73.34.36,74.9.36H85Z"/><path class="cls-2" d="M22.52,8.89a1.13,1.13,0,0,0-.16-.76l-.25-1.56c.9,0,1.76,0,2.62,0a.45.45,0,0,1,.53.42c.08.41.16.82.25,1.24.77-.36.5-1.68,1.63-1.65h2.53c-1,1.71-1.93,3.34-2.88,5,0,.07-.11.18-.17.18-1.09,0-2.18,0-3.27,0-.24,0-.21-.38-.27-.58C22.87,10.39,22.7,9.64,22.52,8.89Z"/><path class="cls-2" d="M110,6.22c1.32,0,2.46,0,3.6,0,.51,0,.51.57,1,.72-.09-.88.52-.72,1-.72,1.71,0,1.7,0,1.39,1.69-.17.95-.34,1.91-.48,2.87-.07.48-.28.59-.77.65a2.8,2.8,0,0,1-3.09-1.51C112,8.67,111,7.56,110,6.22Z"/><path class="cls-2" d="M12.52,0h5.17c.27,0,.78-.15.65.37s.54,1.19-.47,1.37a4.85,4.85,0,0,1-.92.13c-3.24,0-6.49,0-9.74,0-1,0-.65-.64-.73-1.12C6.37.15,6.61,0,7.26,0,9,.05,10.77,0,12.52,0Z"/><path class="cls-2" d="M14.2,11.44c-.25-.12-.36.21-.59.19a1.25,1.25,0,0,0-.71-.23,43.25,43.25,0,0,0-5.21.16c-1.08.2-1.55-.5-1.21-1.62.09-.28.27-.23.46-.24,3.63-.2,7.27-.19,10.9-.18.42,0,.58.12.53.53a2.66,2.66,0,0,0,0,.69c.07.52-.1.69-.65.68C16.55,11.38,15.38,11.43,14.2,11.44Z"/><path class="cls-2" d="M11.19,4.68c1.89.19,4.17-.19,6.45-.19.76,0,.78.34.73.87s.25,1.17-.71,1c-.4-.05-.8,0-1.21,0-3.08,0-6.16.26-9.25.21-.76,0-.76-.35-.71-.87s-.29-1.12.69-1.06C8.38,4.74,9.59,4.68,11.19,4.68Z"/><path class="cls-2" d="M112.3,4C110.08,4,108,4,106,4c-.48,0-.51-.19-.44-.56.18-.9.34-1.8.51-2.7.14-.72.81-.38,1.18-.49a8.23,8.23,0,0,1,2.05-.06.57.57,0,0,1,.55.31C110.6,1.61,111.4,2.73,112.3,4Z"/><path class="cls-2" d="M79.78,6.4C79.5,8,79.21,9.56,79,11.11c0,.36-.17.48-.53.47-.83,0-1.66,0-2.59,0,.29-1.65.58-3.24.83-4.84.06-.33.22-.34.47-.33Z"/><path class="cls-2" d="M87.73,10.14a.81.81,0,0,0-.16.63c0,.63-.25.92-.88.83l-.61,0c-1.63,0-1.64,0-1.41-1.62.14-1,.35-2,.51-3.05.06-.38.21-.54.62-.52a14.54,14.54,0,0,0,2,0c.56,0,.52.25.46.62C88.06,8.05,87.9,9.1,87.73,10.14Z"/><path class="cls-2" d="M105.16,11.43h-.35c-.47,0-.7,0-.56-.66.31-1.34.52-2.7.71-4.06.06-.42.23-.48.6-.49,2.22-.09,2.22-.1,1.79,2.07a17.54,17.54,0,0,0-.41,2.37c0,.67-.33.82-.92.75A6.14,6.14,0,0,0,105.16,11.43Z"/><path class="cls-2" d="M22.31.53c1.52,0,1.53,0,1.86,1.48.13.56.21,1.13.37,1.67s0,.69-.56.66c-.79-.06-1.79.23-2.33-.16S21.21,2.78,21,2C20.69.53,20.7.53,22.31.53Z"/><path class="cls-2" d="M33,.53c-.42.84-.77,1.55-1.12,2.24C31,4.53,30.7,4.6,28,4.24c.67-1.19,1.33-2.34,2-3.51.13-.23.32-.2.52-.2Z"/><path class="cls-2" d="M87.82.36c1.53,0,1.53,0,1.31,1.48-.35,2.33-.35,2.32-2.69,2.33-.54,0-.86,0-.65-.71a9,9,0,0,0,.37-2.12c0-.79.34-1.14,1.14-1A3,3,0,0,0,87.82.36Z"/><path class="cls-2" d="M72,.36c-.19,1.11-.36,2.13-.53,3.14-.06.43-.18.73-.74.67-.76-.08-1.82.24-2.23-.15s.11-1.43.22-2.18C69,.36,69,.36,70.48.36Z"/><path class="cls-2" d="M49.78.53C51.26.53,51.26.53,51,2c-.39,2.37-.39,2.35-2.77,2.3-.56,0-.6-.21-.51-.65a21.18,21.18,0,0,0,.41-2.36c.05-.74.39-.9,1-.81A3,3,0,0,0,49.78.53Z"/><path class="cls-2" d="M63.31.35c-.21,1.23-.4,2.4-.6,3.56,0,.27-.28.25-.48.25H59.65c.18-1.08.37-2.08.52-3.09.07-.4.22-.56.67-.56A6.82,6.82,0,0,0,63.31.35Z"/><path class="cls-2" d="M117.09.18c1.23,0,1.23,0,1,1.26,0,.28-.1.56-.15.84-.1.56,0,1.4-.4,1.59a6.09,6.09,0,0,1-2.11.12c-.39,0-.32-.25-.28-.46.16-1,.36-2,.51-3,0-.3.17-.39.44-.38S116.78.18,117.09.18Z"/><path class="cls-1" d="M2.92,30.57c-.37-1.2.16-2.38.4-3.49s.11-2.44.81-3.53A24.12,24.12,0,0,1,2.92,30.57Z"/><path class="cls-1" d="M55.64,9.47H55a34.23,34.23,0,0,1,1.12-4.14,2.5,2.5,0,0,1,0,1.66C56,7.82,55.82,8.65,55.64,9.47Z"/><path class="cls-1" d="M20.9,33l-1.85.18c-.14,0-.29,0-.3-.19a.2.2,0,0,1,.16-.25C19.56,32.52,20.23,32.22,20.9,33Z"/><path class="cls-1" d="M22.34,41.11c-.06,0-.09-.06-.1-.08-.14-.5-.33-1,.29-1.34.15-.09.28-.12.31.06C22.93,40.29,22.91,40.81,22.34,41.11Z"/><path class="cls-1" d="M.94,42.1c.29.95.26,1.07-.32,1.49C.4,43,.73,42.57.94,42.1Z"/></symbol></defs><title>evoFitLogo</title><g id="Layer_2" data-name="Layer 2"><g id="Layer_1-2" data-name="Layer 1"><use id="New_Symbol-3" data-name="New Symbol" width="156.09" height="49.34" xlink:href="#New_Symbol"/></g></g></svg>